# xmcd CD database file
# Copyright (C) 1997 Ti Kan
# 
# Track frame offsets:
#     182
#     21317
#     39850
#     57557
#     79897
#     105665
#     126675
#     127020
#     149052
#     170170
#     191135
#     193530
#     212830
#     215777
#     216110
# 
# Disc length: 3159 seconds
# 
# Revision: 1
# Processed by: cddbd v1.4b41PL1 Copyright (c) Steve Scherf et al.
# Submitted via: DiscPlay 4.0.4
# 
DISCID=fd0c550f
DTITLE=Motif - More Than Magic
DYEAR=1900
DGENRE=
TTITLE0=Please Tell Me Tonight
TTITLE1=You Told Me
TTITLE2=Say That You Will
TTITLE3=More Than Magic
TTITLE4=I Love You
TTITLE5=Your're All I Need To Get By
TTITLE6=Who's Motif
TTITLE7=Forbidden Love
TTITLE8=What's Going Wrong
TTITLE9=Just My Imagination
TTITLE10=Motif Gettin' Funky
TTITLE11=U Goddit Goin' On
TTITLE12=More Than Magic (Reprise)
TTITLE13=It's Okay
TTITLE14=Pelase Tell Me Tonight (In The Backada Car)
EXTD=
EXTT0=
EXTT1=
EXTT2=
EXTT3=
EXTT4=
EXTT5=
EXTT6=
EXTT7=
EXTT8=
EXTT9=
EXTT10=
EXTT11=
EXTT12=
EXTT13=
EXTT14=
PLAYORDER=
